M48
METRIC,LZ,000.000
;FILE_FORMAT=3:3
;TYPE=PLATED
;Layer: PTH_Through
;EasyEDA v6.5.47, 2024-09-19 05:07:01
;da73b591da4a40a19c68f2a140ff4f82,20cc673dbd184c8ca6733993ffc9aab1,10
;Gerber Generator version 0.2
;Holesize 1 = 1.000 mm
T01C1.000
;Holesize 2 = 1.016 mm
T02C1.016
%
G05
G90
T01
X080419Y034925
X082959Y034925
X085499Y034925
X088039Y034925
X090579Y034925
X093119Y034925
X093119Y014605
X090579Y014605
X088039Y014605
X085499Y014605
X082959Y014605
X080419Y014605
X076581Y033274
X080264Y027559
T02
X103124Y041656
X100584Y041656
X098044Y041656
X095504Y041656
X092964Y041656
X090424Y041656
X087884Y041656
X085344Y041656
X082804Y041656
X080264Y041656
X077724Y041656
X075184Y041656
X075184Y056896
X077724Y056896
X080264Y056896
X082804Y056896
X085344Y056896
X087884Y056896
X090424Y056896
X092964Y056896
X095504Y056896
X098044Y056896
X100584Y056896
X103124Y056896
M30
