G04 Layer: BottomLayer*
G04 EasyEDA v6.5.47, 2024-09-19 05:07:01*
G04 da73b591da4a40a19c68f2a140ff4f82,20cc673dbd184c8ca6733993ffc9aab1,10*
G04 Gerber Generator version 0.2*
G04 Scale: 100 percent, Rotated: No, Reflected: No *
G04 Dimensions in millimeters *
G04 leading zeros omitted , absolute positions ,4 integer and 5 decimal *
%FSLAX45Y45*%
%MOMM*%

%ADD10C,0.7000*%
%ADD11C,1.7000*%
%ADD12C,1.8796*%
%ADD13C,2.2000*%

%LPD*%
D10*
X6807200Y5791200D02*
G01*
X6616700Y5600700D01*
X6616700Y3467100D01*
X7035800Y3048000D01*
X8737600Y3048000D01*
X9093200Y3403600D01*
X9093200Y3457194D01*
X9057893Y3492500D01*
X8026400Y5689600D02*
G01*
X8026400Y5956300D01*
X7848600Y6134100D01*
X7137400Y6134100D01*
X6870700Y5867400D01*
X6807200Y5791200D01*
X8026400Y2755900D02*
G01*
X8041893Y2755900D01*
X8041891Y3492500D02*
G01*
X7823200Y3492500D01*
X7658100Y3327400D01*
X8041893Y1460500D02*
G01*
X8041893Y2755900D01*
X8295893Y3492500D02*
G01*
X8295893Y3667505D01*
X8242300Y3721100D01*
X7188200Y3721100D01*
X7061200Y3848100D01*
X7061200Y5105400D01*
X7213600Y5257800D01*
X8140700Y5257800D01*
X8280400Y5397500D01*
X8280400Y5689600D01*
X8041893Y3492500D02*
G01*
X7023100Y3492500D01*
X6858000Y3657600D01*
X6858000Y5549900D01*
X7289800Y5981700D01*
X7696200Y5981700D01*
X7772400Y5905500D01*
X7772400Y5689600D01*
X8295893Y1460500D02*
G01*
X8041893Y1460500D01*
X8295893Y3492500D02*
G01*
X8549893Y3492500D01*
X9550400Y5689600D02*
G01*
X9550400Y5956300D01*
X9626600Y6032500D01*
X10439400Y6032500D01*
X10591800Y5880100D01*
X10591800Y5499100D01*
X11137900Y4953000D01*
X11137900Y3124200D01*
X10718800Y2705100D01*
X10223500Y2705100D01*
X9601200Y2082800D01*
X9601200Y1320800D01*
X9461500Y1181100D01*
X8953500Y1181100D01*
X8839200Y1295400D01*
X8839200Y1425194D01*
X8803893Y1460500D01*
X10312400Y5689600D02*
G01*
X10312400Y5321300D01*
X10401300Y5232400D01*
X10629900Y5232400D01*
X10972800Y4889500D01*
X10972800Y3213100D01*
X10680700Y2921000D01*
X9512300Y2921000D01*
X9029700Y2438400D01*
X9029700Y1488694D01*
X9057893Y1460500D01*
X9804400Y5689600D02*
G01*
X9804400Y5219700D01*
X10071100Y4953000D01*
X10388600Y4953000D01*
X10617200Y4724400D01*
X10617200Y3581400D01*
X10439400Y3403600D01*
X9400793Y3403600D01*
X9311893Y3492500D01*
X8549893Y1460500D02*
G01*
X8549893Y2326894D01*
X9321800Y3098800D01*
X10541000Y3098800D01*
X10795000Y3352800D01*
X10795000Y4826000D01*
X10541000Y5080000D01*
X10236200Y5080000D01*
X10058400Y5257800D01*
X10058400Y5689600D01*
D11*
G01*
X8041893Y3492500D03*
G01*
X8295893Y3492500D03*
G01*
X8549893Y3492500D03*
G01*
X8803893Y3492500D03*
G01*
X9057893Y3492500D03*
G01*
X9311893Y3492500D03*
G01*
X9311893Y1460500D03*
G01*
X9057893Y1460500D03*
G01*
X8803893Y1460500D03*
G01*
X8549893Y1460500D03*
G01*
X8295893Y1460500D03*
G01*
X8041893Y1460500D03*
D12*
G01*
X10312400Y4165600D03*
G01*
X10058400Y4165600D03*
G01*
X9804400Y4165600D03*
G01*
X9550400Y4165600D03*
G01*
X9296400Y4165600D03*
G01*
X9042400Y4165600D03*
G01*
X8788400Y4165600D03*
G01*
X8534400Y4165600D03*
G01*
X8280400Y4165600D03*
G01*
X8026400Y4165600D03*
G01*
X7772400Y4165600D03*
G01*
X7518400Y4165600D03*
G01*
X7518400Y5689600D03*
G01*
X7772400Y5689600D03*
G01*
X8026400Y5689600D03*
G01*
X8280400Y5689600D03*
G01*
X8534400Y5689600D03*
G01*
X8788400Y5689600D03*
G01*
X9042400Y5689600D03*
G01*
X9296400Y5689600D03*
G01*
X9550400Y5689600D03*
G01*
X9804400Y5689600D03*
G01*
X10058400Y5689600D03*
G01*
X10312400Y5689600D03*
D13*
G01*
X7658100Y3327400D03*
G01*
X8026400Y2755900D03*
M02*
